# xmcd
# Track frame offsets:
# 150
# 18752
# 32853
# 45901
# 61532
# 75860
# 88479
# 98695
# 108681
# 125512
# 153457
# 169437
#
# Disc length: 2516 seconds
# Revision: 0
# Processed by: cddbd v1.5.1PL2 Copyright (c) Steve Scherf et al.
# Submitted via: VisiTrax 2.9.10.228 - For more info visit www.synapsa.com
#
DISCID=8b09d20c
DTITLE=Billy Don Burns - Train Called Lonesome
DYEAR=2002
DGENRE=
TTITLE0=Lonesome 77203
TTITLE1=The One Who Got Away
TTITLE2=James Dean
TTITLE3=Where Was Love
TTITLE4=Fall on My Sword
TTITLE5=Can I Come
TTITLE6=Sarai Green and Ruby Red
TTITLE7=Down The memory Lane
TTITLE8=Talk About Crazy
TTITLE9=Hank Williams Woman
TTITLE10=Lonesome 77203 ( radio edit)
TTITLE11=Hank Williams Woman ( radio edit)
EXTD=
EXTT0=
EXTT1=
EXTT2=
EXTT3=
EXTT4=
EXTT5=
EXTT6=
EXTT7=
EXTT8=
EXTT9=
EXTT10=
EXTT11=
PLAYORDER=
